HIERARCHY
ROOT joint_Root
{
	OFFSET 0.0 0.0 0.0
	CHANNELS 6 Xposition Yposition Zposition Zrotation Xrotation Yrotation 
	JOINT Hips
	{
		OFFSET -17.1583 93.1646 452.98
		CHANNELS 6 Xposition Yposition Zposition Zrotation Xrotation Yrotation 
		JOINT Spine
		{
			OFFSET 15.7357 0.0 0.0
			CHANNELS 6 Xposition Yposition Zposition Zrotation Xrotation Yrotation 
			JOINT Chest
			{
				OFFSET 8.98455 -0.406207 0.0
				CHANNELS 6 Xposition Yposition Zposition Zrotation Xrotation Yrotation 
				JOINT Neck
				{
					OFFSET 16.3773 0.0 0.0
					CHANNELS 6 Xposition Yposition Zposition Zrotation Xrotation Yrotation 
					JOINT Head
					{
						OFFSET 6.45672 0.0 0.0
						CHANNELS 6 Xposition Yposition Zposition Zrotation Xrotation Yrotation 
						End Site
						{
							OFFSET 0.0 0.0 0.0
						}
					}
				}
				JOINT Shoulder_L
				{
					OFFSET 12.9942 -0.242716 4.98039
					CHANNELS 6 Xposition Yposition Zposition Zrotation Xrotation Yrotation 
					JOINT UpperArm_L
					{
						OFFSET 5.34809 0.0 0.0
						CHANNELS 6 Xposition Yposition Zposition Zrotation Xrotation Yrotation 
						JOINT LowerArm_L
						{
							OFFSET 24.3286 1.87007e-05 0.0
							CHANNELS 6 Xposition Yposition Zposition Zrotation Xrotation Yrotation 
							JOINT Hand_L
							{
								OFFSET 22.2916 0.0 0.0
								CHANNELS 6 Xposition Yposition Zposition Zrotation Xrotation Yrotation 
								End Site
								{
									OFFSET 0.0 0.0 0.0
								}
							}
						}
					}
				}
				JOINT Shoulder_R
				{
					OFFSET 12.9945 -0.242716 -4.98039
					CHANNELS 6 Xposition Yposition Zposition Zrotation Xrotation Yrotation 
					JOINT UpperArm_R
					{
						OFFSET -5.34813 0.0 0.0
						CHANNELS 6 Xposition Yposition Zposition Zrotation Xrotation Yrotation 
						JOINT LowerArm_R
						{
							OFFSET -24.3289 0.000322201 0.0
							CHANNELS 6 Xposition Yposition Zposition Zrotation Xrotation Yrotation 
							JOINT Hand_R
							{
								OFFSET -22.2915 -0.000108084 0.0
								CHANNELS 6 Xposition Yposition Zposition Zrotation Xrotation Yrotation 
								End Site
								{
									OFFSET 0.0 0.0 0.0
								}
							}
						}
					}
				}
			}
		}
		JOINT UpperLeg_L
		{
			OFFSET -2.19248 -6.46944 0.0
			CHANNELS 6 Xposition Yposition Zposition Zrotation Xrotation Yrotation 
			JOINT LowerLeg_L
			{
				OFFSET 39.0811 0.0 -1.23785e-05
				CHANNELS 6 Xposition Yposition Zposition Zrotation Xrotation Yrotation 
				JOINT Foot_L
				{
					OFFSET 40.9854 0.0 -1.26872e-05
					CHANNELS 6 Xposition Yposition Zposition Zrotation Xrotation Yrotation 
					JOINT Toes_L
					{
						OFFSET 11.7543 0.0 0.0
						CHANNELS 6 Xposition Yposition Zposition Zrotation Xrotation Yrotation 
						End Site
						{
							OFFSET 0.0 0.0 0.0
						}
					}
				}
			}
		}
		JOINT UpperLeg_R
		{
			OFFSET -2.19251 6.46944 0.0
			CHANNELS 6 Xposition Yposition Zposition Zrotation Xrotation Yrotation 
			JOINT LowerLeg_R
			{
				OFFSET -39.0811 -0.00228153 -0.0401928
				CHANNELS 6 Xposition Yposition Zposition Zrotation Xrotation Yrotation 
				JOINT Foot_R
				{
					OFFSET -40.9854 0.0 0.0
					CHANNELS 6 Xposition Yposition Zposition Zrotation Xrotation Yrotation 
					JOINT Toes_R
					{
						OFFSET -11.7543 0.0 0.0
						CHANNELS 6 Xposition Yposition Zposition Zrotation Xrotation Yrotation 
						End Site
						{
							OFFSET 0.0 0.0 0.0
						}
					}
				}
			}
		}
	}
}
MOTION
Frames:	4
Frame Time:	0.0333333
0.000000 0.000000 0.000000 0.000000 0.000000 -0.000000 1.462580 93.279300 -0.398341 87.941800 -0.361414 1.348440 15.735700 0.000005 -0.000001 82.570400 86.459500 -75.180800 8.984550 -0.406207 -0.000000 -0.607741 -1.453270 14.764900 16.377300 -0.000001 -0.000001 2.962920 6.396220 5.912020 6.456720 -0.000001 -0.000000 -17.648600 1.814520 16.888600 12.994200 -0.242716 4.980390 -86.779500 -6.301990 -62.860100 5.348090 -0.000007 -0.000001 -33.855800 -66.041700 -82.551600 24.328600 0.000019 0.000005 7.139900 25.011300 -16.500300 22.291600 -0.000001 0.000005 45.557100 4.927420 8.829640 12.994500 -0.242716 -4.980390 89.243600 1.979750 -69.085200 -5.348130 -0.000001 -0.000004 -65.055700 0.254510 -7.853550 -24.328900 0.000322 -0.000009 0.465599 1.223710 -20.875100 -22.291500 -0.000108 -0.000004 8.649840 5.227090 2.030690 -2.192480 -6.469440 -0.000000 -174.706000 -11.434300 -0.776375 39.081100 -0.000007 -0.000012 0.031215 -0.110496 15.775100 40.985400 -0.000006 -0.000013 1.279270 15.007900 -68.723500 11.754300 -0.000000 0.000003 -0.000790 0.180003 -9.275230 -2.192510 6.469440 -0.000001 175.410000 9.465790 -176.968000 -39.081100 -0.002282 -0.040193 -0.004584 0.057596 7.836130 -40.985400 0.000008 0.000006 -9.635080 10.231700 -62.954800 -11.754300 -0.000006 -0.000006 -0.010630 0.275952 -5.360860
0.000000 0.000000 0.000000 0.000000 0.000000 -0.000000 1.486700 93.265800 -0.369152 88.005300 -0.617719 1.466670 15.735700 0.000005 -0.000001 81.770900 86.340700 -74.195100 8.984550 -0.406207 -0.000000 -0.372749 -1.583020 15.139300 16.377300 -0.000001 -0.000001 2.767830 6.038840 6.487000 6.456720 -0.000001 -0.000000 -17.869500 1.553320 16.891800 12.994200 -0.242716 4.980390 -86.824800 -6.233390 -62.936700 5.348090 -0.000007 -0.000001 -33.124900 -65.180100 -79.648400 24.328600 0.000019 0.000005 4.013820 20.478800 -11.337900 22.291600 -0.000001 0.000005 42.994700 4.850090 10.362500 12.994500 -0.242716 -4.980390 89.242300 1.978530 -69.040100 -5.348130 -0.000001 -0.000004 -64.910500 0.440555 -8.353630 -24.328900 0.000322 -0.000009 0.368231 0.923988 -21.787500 -22.291500 -0.000108 -0.000004 8.439980 5.232530 1.890170 -2.192480 -6.469440 -0.000000 -174.734000 -11.816000 -0.587737 39.081100 -0.000007 -0.000012 0.032033 -0.113200 15.800600 40.985400 -0.000006 -0.000013 1.326520 15.121800 -68.849400 11.754300 -0.000000 0.000003 -0.001062 0.183907 -9.116570 -2.192510 6.469440 -0.000001 175.356000 9.192590 -177.036000 -39.081100 -0.002282 -0.040193 -0.005223 0.059576 8.181210 -40.985400 0.000008 0.000006 -9.289240 10.202600 -63.248400 -11.754300 -0.000006 -0.000006 -0.010594 0.275690 -5.371610
0.000000 0.000000 0.000000 0.000000 0.000000 -0.000000 1.470890 93.254400 -0.342407 88.018300 -0.794829 1.464100 15.735700 0.000005 -0.000001 80.687300 86.260700 -72.897900 8.984550 -0.406207 -0.000000 -0.219127 -1.750170 15.567900 16.377300 -0.000001 -0.000001 2.700850 5.607450 7.207200 6.456720 -0.000001 -0.000000 -18.099400 1.080560 16.926500 12.994200 -0.242716 4.980390 -86.918600 -6.047670 -62.934800 5.348090 -0.000007 -0.000001 -31.978600 -64.224300 -75.630100 24.328600 0.000019 0.000005 2.091450 17.052900 -7.096090 22.291600 -0.000001 0.000005 39.955400 4.793420 11.444000 12.994500 -0.242716 -4.980390 89.245300 1.967150 -69.005800 -5.348130 -0.000001 -0.000004 -64.718900 0.564594 -8.661970 -24.328900 0.000322 -0.000009 0.357306 0.863167 -22.548300 -22.291500 -0.000108 -0.000004 8.227020 5.237900 1.750460 -2.192480 -6.469440 -0.000000 -174.701000 -12.079600 -0.560670 39.081100 -0.000007 -0.000012 0.029621 -0.104543 15.819700 40.985400 -0.000006 -0.000013 1.333590 15.242200 -68.785700 11.754300 -0.000000 0.000003 -0.000790 0.180008 -9.275020 -2.192510 6.469440 -0.000001 175.394000 9.030500 -177.197000 -39.081100 -0.002282 -0.040193 -0.005921 0.062154 8.475830 -40.985400 0.000008 0.000006 -9.046750 10.153700 -63.474000 -11.754300 -0.000006 -0.000006 -0.010376 0.274093 -5.436940
0.000000 0.000000 0.000000 0.000000 0.000000 -0.000000 1.445110 93.250500 -0.298128 88.068200 -0.959432 1.418870 15.735700 0.000005 -0.000001 80.374700 86.215100 -72.403600 8.984550 -0.406207 -0.000000 -0.126459 -1.811690 15.932400 16.377300 -0.000001 -0.000001 2.615610 5.070640 8.022680 6.456720 -0.000001 -0.000000 -18.318100 0.563936 16.964300 12.994200 -0.242716 4.980390 -86.969600 -5.924770 -62.847600 5.348090 -0.000007 -0.000001 -30.309600 -62.862800 -70.858200 24.328600 0.000019 0.000005 0.661608 15.202200 -2.520330 22.291600 -0.000001 0.000005 37.058200 4.771100 11.859300 12.994500 -0.242716 -4.980390 89.214000 2.038770 -68.913200 -5.348130 -0.000001 -0.000004 -64.422300 0.591990 -8.852030 -24.328900 0.000322 -0.000009 0.380203 0.906158 -22.820000 -22.291500 -0.000108 -0.000004 8.145860 5.241090 1.667190 -2.192480 -6.469440 -0.000000 -174.726000 -12.233100 -0.493827 39.081100 -0.000007 -0.000012 0.028953 -0.102723 15.740800 40.985400 -0.000006 -0.000013 1.308420 15.242600 -68.864200 11.754300 -0.000000 0.000003 -0.000837 0.180688 -9.247360 -2.192510 6.469440 -0.000001 175.397000 8.905260 -177.297000 -39.081100 -0.002282 -0.040193 -0.005731 0.059820 8.623790 -40.985400 0.000008 0.000006 -8.653920 10.200000 -63.751700 -11.754300 -0.000006 -0.000006 -0.010831 0.277410 -5.301210
